<?xml version="1.0" encoding="UTF-8"?>
<svg id="Camada_1" data-name="Camada 1" xmlns="http://www.w3.org/2000/svg" viewBox="0 0 1080 1080">
  <defs>
    <style>
      .cls-1 {
        font-family: Poppins-Bold, Poppins;
        font-size: 50px;
        font-weight: 700;
      }

      .cls-1, .cls-2 {
        fill: #fff;
      }

      .cls-2, .cls-3 {
        stroke-width: 0px;
      }

      .cls-3 {
        fill: #ff5b00;
      }
    </style>
  </defs>
  <g>
    <path class="cls-2" d="M628.3,695.41l6.44,140.38c.38,8.59,7.45,15.34,16.04,15.34h.02c8.59,0,15.65-6.75,16.04-15.34l6.44-140.38h-44.98ZM655.74,789.75l-5.02-6.77-5.05,6.77h-5.05l7.62-9.92-7.29-9.63h5.09l4.8,6.41,4.8-6.41h4.94l-7.32,9.56,7.67,9.99h-5.18Z"/>
    <polygon class="cls-2" points="673.89 682.09 673.52 690.03 628.07 690.03 627.7 682.09 673.89 682.09"/>
    <path class="cls-2" d="M616.57,439.57l10.87,237.13h46.7l10.87-237.13h-68.44ZM655.74,579.74l-5.02-6.79-5.05,6.79h-5.05l7.62-9.92-7.29-9.65h5.09l4.8,6.41,4.8-6.41h4.94l-7.32,9.57,7.67,9.99h-5.18Z"/>
    <polygon class="cls-2" points="615.95 426.26 685.64 426.26 685.27 434.18 616.32 434.18 615.95 426.26"/>
    <path class="cls-2" d="M650.89,129.59c32.84,0,58.56,28.22,55.55,60.91-5.08,55.15-10.06,110.33-16.27,165.32-1.67,14.85-2.8,29.76-3.37,44.7l-.93,20.32h-70.16l-.93-20.32c-.59-14.94-1.7-29.86-3.39-44.72-5.34-55.01-10.68-110.02-16.03-165.04-3.18-32.79,22.59-61.18,55.53-61.18h0Z"/>
  </g>
  <g>
    <path class="cls-3" d="M211.73,530.99c1.21.91.5,2.83-1.03,2.8-45.9-1.08-107.73-6.83-129.69-54.18-9.86-21.27,2.22-54.12,27.01-59.81,10.97-2.52,22.99.59,31.08,8.05,7.89,7.27,11.17,17.57,13.97,27.61,9.21,33.09,31.43,55.09,58.67,75.53Z"/>
    <path class="cls-2" d="M115.44,583.06c21.64-27.75,62.33-23.77,92.04-18.75,1,.16,1.14,1.49.21,1.92-20.77,9.78-38.54,21.17-49.72,41.33-3.37,6.1-7.12,12.33-13.36,16.02-6.39,3.79-14.61,4.29-21.27,1.32-15.05-6.76-17.63-29.38-7.91-41.85ZM128.19,603.48c1.69-.47,3.12-1.79,3.7-3.41.56-1.58.3-3.25-.02-4.81-1.06-5.22.44-9.89,2.72-14.7.11-.22-.12-.43-.34-.31-6.19,3.56-14.26,8.94-13.95,17.05.14,3.66,4.09,7.26,7.88,6.18Z"/>
  </g>
  <path class="cls-2" d="M456.26,453.37c0,46.67-35.74,79.04-83.24,79.04h-109.15c-27.02,0-48.92-21.9-48.92-48.92v-192.23c0-27.02,21.9-48.92,48.92-48.92h99.9c44.56,0,79.46,31.53,79.46,75.25,0,25.65-11.77,49.19-29.43,60.96,24.81,11.35,42.46,41.62,42.46,74.83ZM292.72,314.63v35.31h50.45c10.09,0,17.66-7.57,17.66-17.66s-7.57-17.66-17.66-17.66h-50.45ZM373.86,439.07c0-11.77-9.25-21.02-21.02-21.02h-60.12v42.04h60.12c11.77,0,21.02-9.25,21.02-21.02Z"/>
  <rect class="cls-2" x="482.33" y="307.61" width="75.67" height="305.15" rx="37.84" ry="37.84"/>
  <path class="cls-2" d="M565.99,243.74c0,26.05-19.78,45.39-45.83,45.39s-45.83-19.34-45.83-45.39,19.78-45.42,45.83-45.42,45.83,19.34,45.83,45.42Z"/>
  <path class="cls-2" d="M937.62,398.85v187.5c0,7.43-6.02,13.45-13.45,13.45h-48.77c-7.43,0-13.45-6.02-13.45-13.45h0c-14.72,11.77-32.79,18.5-53.81,18.5-58.02,0-101.32-48.35-101.32-112.25s43.3-112.25,101.32-112.25c21.02,0,39.1,6.73,53.81,18.5h0c0-7.43,6.02-13.45,13.45-13.45h48.77c7.43,0,13.45,6.02,13.45,13.45ZM861.95,492.97c.18-22.17-15.84-39.02-37.79-39.46-21.44-.43-39.39,17.28-39.56,38.72-.18,22.16,15.84,39.01,37.79,39.45,21.44.43,39.4-17.27,39.57-38.72Z"/>
  <path class="cls-3" d="M456.26,767.05c0,46.67-35.74,79.04-83.24,79.04h-109.15c-27.02,0-48.92-21.9-48.92-48.92v-192.23c0-27.02,21.9-48.92,48.92-48.92h99.9c44.56,0,79.46,31.53,79.46,75.25,0,25.65-11.77,49.19-29.43,60.96,24.81,11.35,42.46,41.62,42.46,74.83ZM292.72,628.31v35.31h50.45c10.09,0,17.66-7.57,17.66-17.66s-7.57-17.66-17.66-17.66h-50.45ZM373.86,752.75c0-11.77-9.25-21.02-21.02-21.02h-60.12v42.04h60.12c11.77,0,21.02-9.25,21.02-21.02Z"/>
  <rect class="cls-3" x="482.33" y="631.66" width="75.67" height="214.42" rx="37.84" ry="37.84"/>
  <path class="cls-3" d="M937.62,645.13v187.5c0,7.43-6.02,13.45-13.45,13.45h-48.77c-7.43,0-13.45-6.02-13.45-13.45h0c-14.72,11.77-32.79,18.5-53.81,18.5-58.02,0-101.32-48.35-101.32-112.25s43.3-112.25,101.32-112.25c21.02,0,39.1,6.73,53.81,18.5h0c0-7.43,6.02-13.45,13.45-13.45h48.77c7.43,0,13.45,6.02,13.45,13.45ZM861.95,739.25c.18-22.17-15.84-39.02-37.79-39.46s-39.39,17.28-39.56,38.72c-.18,22.16,15.84,39.01,37.79,39.45,21.44.43,39.4-17.27,39.57-38.72Z"/>
  <text class="cls-1" transform="translate(245.75 919.86)"><tspan x="0" y="0">Aqui a Gula é Bem-Vinda!</tspan></text>
</svg>